<svg width="314.61684570312497px" height="121.39999999999999px" xmlns="http://www.w3.org/2000/svg" viewBox="92.69157714843752 14.300000000000004 314.61684570312497 121.39999999999999" style="background: rgb(13, 17, 23);" preserveAspectRatio="xMidYMid"><defs><linearGradient id="editing-glowing-gradient" x1="0.8146601955249186" x2="0.18533980447508142" y1="0.8885729807284856" y2="0.11142701927151444"><stop offset="0" stop-color="#67ff43"></stop><stop offset="1" stop-color="#90ffff"></stop></linearGradient><filter id="editing-glowing" x="-100%" y="-100%" width="300%" height="300%"><feGaussianBlur in="SourceGraphic" result="blur" stdDeviation="10"></feGaussianBlur><feMerge><feMergeNode in="blur"></feMergeNode><feMergeNode in="SourceGraphic"></feMergeNode></feMerge></filter></defs><g filter="url(#editing-glowing)"><g transform="translate(143.49875450134277, 98.68000030517578)"><path d="M29.18 1.28L29.18 1.28L29.18 1.28Q20.99 1.28 20.22-10.37L20.22-10.37L9.22-10.37L9.22-10.37Q7.94-7.42 7.04-4.86L7.04-4.86L5.38 0L-3.58 0L16.58-42.24L30.34-42.24L33.02-11.14L33.02-11.14Q33.66-4.42 36.22-2.43L36.22-2.43L36.22-2.43Q34.37 1.28 29.18 1.28ZM14.72-23.17L11.20-15.04L20.03-15.04L19.26-31.49L19.26-33.22L14.72-23.17ZM59.97-17.98L59.97-17.98L59.97-17.98Q62.27-22.08 62.27-26.24L62.27-26.24L62.27-26.24Q62.27-28.99 60.29-28.99L60.29-28.99L60.29-28.99Q58.75-28.99 57.15-26.37L57.15-26.37L57.15-26.37Q55.49-23.74 54.98-20.35L54.98-20.35L51.65 0L38.40 1.28L44.93-32.64L55.49-33.92L54.34-27.46L54.34-27.46Q57.47-33.92 64.51-33.92L64.51-33.92L64.51-33.92Q68.22-33.92 70.24-32L70.24-32L70.24-32Q72.26-30.08 72.26-26.14L72.26-26.14L72.26-26.14Q72.26-22.21 69.66-19.71L69.66-19.71L69.66-19.71Q67.07-17.22 62.66-17.22L62.66-17.22L62.66-17.22Q60.74-17.22 59.97-17.98ZM104.70-26.62L104.70-26.62L104.70-26.62Q104.70-23.94 102.46-22.27L102.46-22.27L102.46-22.27Q100.22-20.61 96.58-20.61L96.58-20.61L96.58-20.61Q95.04-20.61 94.14-21.06L94.14-21.06L94.14-21.06Q94.85-22.72 95.07-24.80L95.07-24.80L95.07-24.80Q95.30-26.88 95.30-27.46L95.30-27.46L95.30-27.46Q95.30-30.14 93.44-30.14L93.44-30.14L93.44-30.14Q92.16-30.14 90.72-28.54L90.72-28.54L90.72-28.54Q89.28-26.94 88.06-24.45L88.06-24.45L88.06-24.45Q85.38-18.69 85.38-12.86L85.38-12.86L85.38-12.86Q85.38-9.66 86.59-8.22L86.59-8.22L86.59-8.22Q87.81-6.78 90.50-6.78L90.50-6.78L90.50-6.78Q94.21-6.78 97.15-9.86L97.15-9.86L97.15-9.86Q97.98-10.82 98.43-11.90L98.43-11.90L98.43-11.90Q100.86-10.62 100.86-7.10L100.86-7.10L100.86-7.10Q100.86-3.52 96.90-1.15L96.90-1.15L96.90-1.15Q92.80 1.28 86.27 1.28L86.27 1.28L86.27 1.28Q73.28 1.28 73.28-12.48L73.28-12.48L73.28-12.48Q73.28-22.53 78.98-28.29L78.98-28.29L78.98-28.29Q84.48-33.92 94.59-33.92L94.59-33.92L94.59-33.92Q104.70-33.92 104.70-26.62ZM138.62-7.10L138.62-7.10L138.62-7.10Q138.62-4.29 141.50-3.46L141.50-3.46L141.50-3.46Q140.80-1.09 138.05 0.19L138.05 0.19L138.05 0.19Q135.74 1.28 133.22 1.28L133.22 1.28L133.22 1.28Q130.69 1.28 129.38 0.61L129.38 0.61L129.38 0.61Q128.06-0.06 127.36-1.15L127.36-1.15L127.36-1.15Q126.21-2.82 126.21-5.95L126.21-5.95L126.21-5.95Q126.21-7.81 127.23-12.93L127.23-12.93L128.13-17.79L128.13-17.79Q129.22-23.36 129.22-25.41L129.22-25.41L129.22-25.41Q129.22-28.99 127.23-28.99L127.23-28.99L127.23-28.99Q124.74-28.99 123.14-25.34L123.14-25.34L123.14-25.34Q122.50-23.94 122.05-21.82L122.05-21.82L117.70 0L104.83 1.28L113.86-44.80L126.72-46.08L126.21-43.52L126.21-43.52Q124.42-33.66 122.88-30.34L122.88-30.34L122.88-30.34Q126.46-33.92 133.06-33.92L133.06-33.92L133.06-33.92Q140.03-33.92 141.31-29.31L141.31-29.31L141.31-29.31Q141.76-27.84 141.76-26.56L141.76-26.56L141.76-26.56Q141.76-25.28 141.66-24.29L141.66-24.29L141.66-24.29Q141.57-23.30 141.25-21.50L141.25-21.50L140.42-16.90L138.94-9.66L138.94-9.66Q138.62-8.19 138.62-7.10ZM172.61-10.82L172.61-10.82L172.61-10.82Q174.21-9.73 174.21-7.33L174.21-7.33L174.21-7.33Q174.21-4.93 172.99-3.39L172.99-3.39L172.99-3.39Q171.78-1.86 169.79-0.83L169.79-0.83L169.79-0.83Q165.70 1.28 161.28 1.28L161.28 1.28L161.28 1.28Q156.86 1.28 154.27 0.32L154.27 0.32L154.27 0.32Q151.68-0.64 149.95-2.43L149.95-2.43L149.95-2.43Q146.56-5.82 146.56-12.03L146.56-12.03L146.56-12.03Q146.56-21.70 151.81-27.58L151.81-27.58L151.81-27.58Q157.44-33.92 167.23-33.92L167.23-33.92L167.23-33.92Q173.31-33.92 176.32-31.36L176.32-31.36L176.32-31.36Q178.56-29.44 178.56-26.30L178.56-26.30L178.56-26.30Q178.56-15.04 159.10-15.04L159.10-15.04L159.10-15.04Q158.85-13.38 158.85-11.97L158.85-11.97L158.85-11.97Q158.85-9.02 160.16-7.90L160.16-7.90L160.16-7.90Q161.47-6.78 163.90-6.78L163.90-6.78L163.90-6.78Q166.34-6.78 168.93-7.90L168.93-7.90L168.93-7.90Q171.52-9.02 172.61-10.82ZM159.55-17.79L159.55-17.79L159.55-17.79Q164.10-17.79 166.72-20.61L166.72-20.61L166.72-20.61Q169.34-23.30 169.34-27.58L169.34-27.58L169.34-27.58Q169.34-29.06 168.80-29.86L168.80-29.86L168.80-29.86Q168.26-30.66 167.17-30.66L167.17-30.66L167.17-30.66Q166.08-30.66 165.15-30.24L165.15-30.24L165.15-30.24Q164.22-29.82 163.26-28.42L163.26-28.42L163.26-28.42Q160.90-25.22 159.55-17.79ZM200.77-17.98L200.77-17.98L200.77-17.98Q203.07-22.08 203.07-26.24L203.07-26.24L203.07-26.24Q203.07-28.99 201.09-28.99L201.09-28.99L201.09-28.99Q199.55-28.99 197.95-26.37L197.95-26.37L197.95-26.37Q196.29-23.74 195.78-20.35L195.78-20.35L192.45 0L179.20 1.28L185.73-32.64L196.29-33.92L195.14-27.46L195.14-27.46Q198.27-33.92 205.31-33.92L205.31-33.92L205.31-33.92Q209.02-33.92 211.04-32L211.04-32L211.04-32Q213.06-30.08 213.06-26.14L213.06-26.14L213.06-26.14Q213.06-22.21 210.46-19.71L210.46-19.71L210.46-19.71Q207.87-17.22 203.46-17.22L203.46-17.22L203.46-17.22Q201.54-17.22 200.77-17.98Z" fill="url(#editing-glowing-gradient)"></path></g></g><style>text {
  font-size: 64px;
  font-family: Arial Black;
  dominant-baseline: central;
  text-anchor: middle;
}</style></svg>